<svg width="837" height="678" viewBox="0 0 837 678" fill="none" xmlns="http://www.w3.org/2000/svg">
<g clip-path="url(#clip0_398_134)">
<path fill-rule="evenodd" clip-rule="evenodd" d="M111.009 232.083C112.775 229.356 112.765 229.94 115.934 230.505C128.936 232.822 141.938 235.14 154.94 237.458C198.947 245.303 242.954 253.147 286.961 260.992C302.477 263.758 317.994 266.524 333.509 269.289C335.775 269.694 340.22 269.596 342.217 270.842C343.242 271.482 344.007 273.378 344.67 274.406C347.543 278.859 350.416 283.312 353.289 287.766C369.416 312.762 386.023 337.445 402.483 362.223C420.786 389.772 439.088 417.323 457.391 444.873L380.391 443.873C385.145 446.974 389.9 450.075 394.655 453.175C428.233 475.075 461.812 496.974 495.391 518.873L447.391 550.873L464.391 568.873C459.09 571.889 453.788 574.905 448.488 577.921C438.768 583.452 429.048 588.981 419.329 594.512C415.884 596.472 412.439 598.432 408.994 600.392C408.184 600.853 407.037 601.817 406.186 601.741C404.908 601.625 402.599 599.417 401.56 598.742C398.275 596.605 394.995 594.461 391.719 592.31C381.637 585.694 371.592 579.023 361.586 572.292C337.056 555.789 312.58 539.088 289.097 521.114C278.247 512.811 268.175 504.203 259.699 493.4C250.373 481.514 242.671 468.389 235.9 454.908C230.198 443.559 225.15 431.876 220.673 419.992C219.134 415.908 215.325 409.369 215.394 404.882C215.431 402.47 217.527 399 218.338 396.768C220.262 391.477 222.187 386.185 224.111 380.894C225.098 378.178 227.037 374.807 227.375 371.915C227.786 368.424 226.092 363.647 225.547 360.198C225.283 358.521 225.32 353.795 224.047 352.847C223.201 352.216 220.009 352.536 218.991 352.457C210.734 351.823 202.478 351.187 194.221 350.552C172.079 348.849 149.939 347.146 127.798 345.443C121.704 344.974 114.857 345.3 108.875 343.987C104.356 342.996 101.531 339.372 100.18 335.135C96.1249 322.41 92.2909 309.484 89.8219 296.346C87.4339 283.648 89.7399 273.768 94.9469 262.019C99.5049 251.735 104.888 241.536 111.009 232.083ZM698.391 353.873C694.015 370.547 687.9 391.405 674.979 403.487C670.067 408.081 663.511 411.082 657.536 414.001C648.748 418.292 639.735 422.13 630.663 425.776C614.65 432.212 597.829 439.342 580.767 442.466C576.031 443.332 573.619 442.482 569.676 439.64C563.054 434.866 557.066 429.131 551.146 423.535C541.656 414.564 532.425 405.303 523.391 395.873C557.613 395.79 592.901 394.225 626.391 386.873C651.902 381.273 677.521 369.731 698.391 353.873Z" fill="black"/>
<path fill-rule="evenodd" clip-rule="evenodd" d="M349.025 1.99421C357.271 5.66921 361.623 15.8372 365.952 23.1902C371.148 32.0142 375.855 41.2552 378.509 51.1912C381.229 61.3722 381.606 72.5352 380.4 82.9812C379.87 87.5772 378.626 91.7602 377.312 96.1572C375.907 100.857 378.095 103.545 381.428 106.859C388.352 113.743 397.07 119.025 402.209 127.506C406.562 134.692 411.624 136.022 419.831 136.33C440.214 137.095 460.189 136.464 480.383 140.363C485.51 141.353 490.605 142.565 495.649 143.918C497.306 144.362 499.039 145.138 500.747 145.294C503.209 145.518 503.629 144.539 505.468 143.592C513.56 139.427 523.83 143.428 531.918 145.713C552.335 151.482 571.599 159.335 590.105 169.74C610.088 180.976 631.391 189.698 651.19 201.268C670.317 212.445 687.5 226.512 705.34 239.56C723.482 252.831 740.69 267.191 757.467 282.143C773.683 296.594 790.448 310.778 804.953 326.993C818.177 341.776 828.624 359.277 835.632 377.874C837.971 384.081 836.531 387.991 829.219 385.943C828.572 392.222 823.891 394.846 817.957 393.504C819.779 398.772 823.941 405.908 821.56 411.577C818.393 419.114 809.322 413.628 804.874 410.691C805.357 416.75 807.934 426.586 802.93 431.476C795.175 439.053 782.087 429.397 776.594 423.735C762.598 409.306 753.647 391.452 741.221 375.886C725.82 356.594 708.471 338.405 691.059 320.94C689.685 319.561 674.187 302.933 671.966 305.193C678.728 316.39 684.132 328.715 693.586 338.017C698.074 331.714 701.325 334.82 702.168 341.149C703.18 348.757 704.308 356.769 702.905 364.394C700.147 379.402 690.673 393.676 680.718 404.915C670.304 416.67 657.374 425.621 643.503 432.826C635.65 436.905 627.774 440.727 619.327 443.405C615.544 444.605 611.755 445.996 607.869 446.829C604.133 447.63 600.093 447.574 596.635 449.387C627.61 464.175 661.88 470.405 692.928 484.812C700.422 488.289 715.471 497.327 707.867 507.486C701.985 515.346 688.617 515.624 679.843 517.192C686.298 523.285 685.336 528.942 676.851 532.259C673.442 533.591 669.889 534.209 666.254 534.304C663.786 534.368 659.521 533.49 657.527 535.43C665.22 538.955 675.708 538.741 682.031 544.934C688.482 551.252 680.777 556.335 675.012 558.772C667.429 561.976 657.002 565.356 649.288 561.492C643.191 558.438 637.562 559.1 630.82 558.297C623.868 557.469 616.996 555.981 610.29 553.98C584.755 546.361 561.242 532.261 538.692 518.391C516.163 504.534 495.152 488.791 475.722 470.826C470.929 466.394 466.937 461.12 462.038 456.829C456.882 452.313 451.484 451.908 444.888 451.983C429.893 452.153 414.927 449.485 399.94 451.244C421.481 467.479 444.244 481.779 466.904 496.361C475.526 501.91 484.59 509.309 494.727 511.728C499.174 512.79 508.716 513.494 510.193 518.977C511.273 522.978 507.851 523.65 505.801 525.821C502.832 528.965 507.012 530.016 510.076 531.319C513.937 532.96 517.462 533.489 521.668 533.055C528.106 532.39 533.157 532.611 539.156 535.369C548.583 539.701 558.704 542.033 568.155 546.27C572.069 548.025 573.098 553.255 574.987 556.806C577.957 562.387 581.389 567.701 584.757 573.046C591.106 583.122 596.585 593.486 605.594 601.524C613.489 608.568 622.28 614.807 630.855 621C644.247 630.675 661.283 642.637 656.979 661.614C652.723 680.374 633.279 678.357 618.463 675.007C612.227 673.597 603.705 669.654 597.418 671.507C591.993 673.107 588.257 673.345 582.629 672.068C576.103 670.586 569.536 669.622 562.925 668.6C549.066 666.457 535.092 662.922 521.849 658.288C515.497 656.065 510.192 653.098 505.189 648.556C503.703 647.208 502.622 645.295 500.646 645.311C498.966 645.325 496.367 648.307 495.067 649.342C490.963 652.61 486.424 655.339 481.74 651.452C478.75 648.97 476.089 643.57 480.413 641.014C483.728 639.054 489.782 641.3 492.159 637.594C494.648 633.714 489.084 628.085 487.342 624.931C482.084 628.5 474.346 635.719 468.248 629.744C463.363 624.959 468.798 622.055 473.303 620.524C478.872 618.63 485.316 618.874 482.478 611.427C480.865 607.198 478.285 603.408 477.87 598.792C477.555 595.283 478.567 591.906 478.592 588.425C478.636 582.203 471.946 576.844 466.118 575.37C462.559 574.469 461.502 577.51 459.316 579.841C456.104 583.267 452 585.831 447.909 588.066C441.197 591.732 434.152 594.642 427.118 597.6C422.457 599.56 414.218 602.128 417.546 608.068C422.416 616.764 411.001 612.602 406.886 610.629C397.312 606.039 387.644 601.657 378.19 596.816C358.801 586.885 340.961 574.622 323.835 561.2C307.023 548.023 290.608 534.026 275.333 519.083C267.934 511.843 260.861 504.229 254.561 496.006C247.794 487.174 242.096 477.597 235.201 468.853C228.047 459.778 220.976 450.974 216.367 440.269C212.097 430.35 207.25 419.278 207.173 408.381C207.088 396.342 207.136 385.529 211.117 373.981C212.778 369.163 214.773 364.145 217.668 359.932C218.5 358.721 222.868 354.58 221.973 352.929C222.023 353.022 212.049 354.546 211.006 354.645C204.385 355.278 197.724 354.143 191.128 353.527C171.624 351.707 151.936 352.389 132.504 349.711C125.178 348.701 117.229 349.762 110.078 347.901C106.7 347.023 105.868 345.088 103.386 343.505C102.253 342.782 101.041 343.021 99.987 342.017C98.753 340.841 98.486 339.144 97.94 337.61C95.023 329.42 90.108 322.107 87.22 313.901C83.973 304.671 84.12 295.106 84.356 285.458C79.533 285.842 74.467 285.874 69.942 283.922C66.29 295.399 50.561 295.192 40.892 294.321C28.817 293.234 14.659 292.097 8.53905 279.978C1.34695 265.735 1.82194 248.444 0.951943 232.9C-0.070057 214.645 -0.361057 196.117 0.535943 177.851C1.29894 162.315 4.83905 146.188 14.884 133.858C23.747 122.979 39.0801 116.612 51.1411 126.764C60.2061 134.396 64.164 148.141 64.757 159.588C65.059 165.413 64.787 170.645 71.958 169.03C74.715 168.409 77.221 167.405 79.254 170.233C81.047 172.724 80.224 176.325 77.954 178.188C75.897 179.878 71.895 179.592 70.486 182.104C69.09 184.595 71.298 188.585 73.944 189.092C76.957 189.669 79.2771 185.798 82.3111 187.594C85.0911 189.241 83.639 192.318 81.776 194.12C79.572 196.254 77.449 196.699 79.025 200.076C80.233 202.667 82.651 204.392 83.736 207.139C86.414 213.916 87.2981 223.654 84.3201 230.47C89.4881 231.045 101.983 237.158 106.048 232.213C107.523 230.419 107.699 227.784 109.293 225.954C111.168 223.8 113.789 222.884 116.564 222.537C122.497 221.795 128.567 223.6 134.33 224.763C143.884 226.693 153.496 228.383 163.092 230.088C182.401 233.519 201.889 235.907 221.15 239.593C240.37 243.272 259.392 247.924 278.4 252.557C288.368 254.986 298.29 257.716 308.332 259.82C317.717 261.785 327.497 263.234 336.232 267.391C334.505 256.709 329.686 246.893 326.682 236.567C323.592 225.946 322.724 215.344 324.468 204.407C326.067 194.386 328.435 184.647 333.548 175.791C335.615 172.21 337.89 168.643 340.868 165.755C342.985 163.701 345.966 161.993 347.64 159.544C349.291 157.127 348.94 156.566 345.967 155.453C344.314 154.833 342.813 154.646 341.246 153.778C339.805 152.98 338.565 151.531 336.871 151.255C332.963 150.617 327.25 154.405 323.67 155.753C318.783 157.592 313.734 159.248 308.518 159.808C291.399 161.646 271.097 151.716 259.361 139.686C255.444 135.671 246.455 126.439 250.108 120.316C252.036 117.084 255.483 117.852 258.377 116.384C262.909 114.085 260.037 110.271 257.866 107.244C251.952 98.9982 247.986 89.5612 243.752 80.3862C239.442 71.0482 233.534 62.7002 228.69 53.6612C225.213 47.1752 221.183 39.9202 219.585 32.7022C217.633 23.8872 223.599 22.6412 230.893 21.3782C253.963 17.3822 276.678 12.0132 299.541 7.01421C308.655 5.02221 317.813 2.99721 326.986 1.29821C334.135 -0.0257865 342.16 -1.06379 349.025 1.99421ZM551.517 551.91C539.62 552.522 527.65 555.164 527.269 569.046C528.712 595.388 545.843 615.078 563.941 632.55C568.507 636.958 572.976 641.631 577.935 645.604C580.853 647.941 584.034 649.01 587.191 650.862C587.965 651.316 589.302 652.837 590.021 653.068C591.727 653.62 591.875 653 593.539 652.824C597.167 652.442 597.837 654.97 600.595 657.038C605.828 660.961 615.22 660.387 621.365 661.614C627.04 662.747 649.63 670.93 648.614 659.144C647.621 647.628 635.339 642.033 626.684 636.89C614.621 629.722 602.186 621.963 592.029 612.194C582.373 602.905 576.069 590.195 569.584 578.627C565.542 571.418 564.423 565.305 563.256 557.249C562.762 553.841 562.712 552.726 559.378 552.151C556.8 551.707 554.118 551.776 551.517 551.91ZM510.125 549.996C503.252 552.223 498.061 557.735 494.64 563.969C492.889 567.16 491.885 570.378 491.306 573.946C490.569 578.487 488.873 583.337 490.142 587.902C492.444 596.188 498.485 605.234 503.23 612.343C508.565 620.338 515.493 629.312 523.912 634.213C532.015 638.931 541.801 640.188 549.316 646.011C548.643 642.809 545.64 640.445 543.283 638.448C539.847 635.537 536.842 632.647 533.923 629.181C527.467 621.517 522.101 613.217 518.662 603.762C515.33 594.6 513.422 584.288 513.847 574.521C514.049 569.873 514.848 564.935 516.855 560.695C518.195 557.861 520.572 555.451 521.599 552.471C523.949 545.639 513.553 548.885 510.125 549.996ZM359.413 323.547C349.818 324.637 340.305 326.48 330.64 327.373C311.101 329.177 290.82 330.244 273.114 339.577C247.351 353.159 217.681 383.299 226.616 415.047C237.171 452.55 259.736 486.462 287.988 513.001C306.024 529.943 325.777 545.21 345.591 560C364.756 574.307 386.928 583.691 406.686 597.066C408.025 577.357 420.409 559.283 435.053 546.744C442.922 540.007 451.181 533.552 460.005 528.111C464.34 525.437 468.83 523.178 473.401 520.945C476.871 519.251 480.705 516.729 484.671 516.54C484.607 513.634 477.318 512.561 475.307 511.877C468.367 509.518 461.707 505.903 455.279 502.401C441.284 494.777 428.353 485.473 415.403 476.229C409.073 471.711 402.643 467.328 396.381 462.714C390.742 458.56 385.743 453.156 379.684 449.619C373.451 445.981 366.083 445.221 359.129 443.88C350.775 442.268 342.555 440.354 334.161 438.94C320.144 436.579 306.913 428.324 293.991 422.699C289.647 420.807 283.018 419.166 279.702 415.584C276.697 412.339 277.482 407.328 281.334 405.104C287.959 401.28 299 406.267 305.264 408.735C316.852 413.3 328.36 417.386 340.657 419.725C357.501 422.929 373.508 428.926 390.375 432.065C408.564 435.449 426.796 439.153 445.288 440.401C440.757 431.422 433.245 423.962 427.394 415.84C420.681 406.523 413.978 397.2 407.323 387.841C395.594 371.342 382.514 354.763 373.599 336.526C370.542 330.274 367.534 322.624 359.413 323.547ZM446.516 563.953C443.846 564.38 441.83 567.05 440.015 568.815C434.396 574.277 428.896 579.685 424.321 586.089C431.4 583.099 437.173 577.888 443.997 574.463C446.456 573.228 455.14 570.476 453.39 567.036C452.406 565.104 448.481 563.639 446.516 563.953ZM479.002 541.954C472.071 546.684 464.856 550.913 457.547 555.025C462.673 556.973 467.792 559.661 471.999 563.192C473.923 564.807 477.878 569.534 480.66 568.346C483.246 567.242 484.651 560.844 485.903 558.535C489.108 552.623 493.592 547.039 498.413 542.377C491.17 537.529 486.316 536.963 479.002 541.954ZM420.5 284.468C414.953 286.012 409.449 287.699 403.906 289.255C392.839 292.362 381.529 294.959 369.972 294.959C368.399 297.853 372.904 302.573 374.288 304.78C377.921 310.575 381.023 316.79 384.317 322.789C391.3 335.505 398.919 347.728 407.138 359.678C415.442 371.752 422.943 384.398 431.447 396.326C439.678 407.872 448.732 419.088 457.648 430.112C492.386 473.063 540.802 502.683 588.387 529.292C601.725 536.75 615.621 543.321 630.392 547.394C636.491 549.076 642.712 550.5 648.916 551.753C653.085 552.594 660.022 554.479 663.861 551.782C651.808 547.006 636.014 545.164 626.278 535.923C620.251 530.202 626.861 525.934 633.006 524.871C644.897 522.814 657.221 527.994 668.893 524.633C665.773 518.909 656.806 519.182 651.351 517.713C644.454 515.854 644.198 512.369 650.765 509.999C658.847 507.082 668.164 508.664 676.587 508.127C680.698 507.865 697.928 507.178 692.724 499.281C688.628 493.068 678.657 491.326 672.131 489.034C662.975 485.819 654.081 480.801 644.756 478.31C635.635 475.873 626.342 474.376 617.221 471.803C607.702 469.118 598.329 466.134 589.283 462.105C571.843 454.337 555.674 443.791 540.946 431.685C525.77 419.209 512.466 404.912 500.225 389.58C493.784 381.514 487.655 373.214 481.39 365.014C475.338 357.096 468.495 349.549 463.65 340.808C458.293 331.14 451.35 322.315 445.802 312.681C442.796 307.46 439.561 302.339 436.758 297.006C434.766 293.214 433.409 287.654 430.715 284.359C428.182 281.262 423.754 283.563 420.5 284.468ZM164.277 406.984C166.136 408.683 165.827 409.383 165.469 411.541C164.736 415.963 163.927 420.303 163.587 424.79C162.421 440.136 164.585 456.051 166.976 471.208C169.363 486.331 175.101 500.303 183.944 512.811C192.512 524.93 202.854 534.585 216.479 540.532C218.818 541.553 228.081 545.299 227.482 548.755C227.032 551.354 222.223 549.884 220.494 549.513C196.003 544.265 175.247 522.118 162.87 501.502C157.746 492.968 154.45 484.291 151.62 474.858C151.206 473.48 145.275 453.963 147.278 453.718C145.549 440.203 145.032 423.771 151.419 411.262C153.805 406.59 159.396 402.527 164.277 406.984ZM121.548 409.891C119.313 420.079 120.052 430.474 120.545 440.794C120.635 442.673 121.709 448.468 118.6 448.357C116.403 448.279 114.652 442.669 114.113 441.23C110.848 432.498 109.688 422.663 111.319 413.459C111.834 410.545 112.612 407.01 115.816 405.998C118.603 405.118 121.795 406.69 121.548 409.891ZM693.868 362.855C692.491 363.52 691.884 364.786 691.473 366.176C680.699 375.36 668.024 384.249 655.426 390.73C644.172 396.518 631.14 398.958 618.857 401.576C590.766 407.564 562.795 409.983 534.778 402.233C546.227 412.797 556.609 426.834 571.042 433.564C578.213 436.908 586.15 434.891 593.38 432.773C602.251 430.174 611.176 427.519 619.761 424.073C635.982 417.563 653.332 410.359 666.972 399.2C673.019 394.253 677.948 388.138 682.287 381.677C684.772 377.976 686.875 374.018 689.39 370.344C690.839 368.226 694.013 365.617 693.868 362.855ZM574.175 174.993C573.763 180.218 570.686 184.607 567.972 188.897C566.126 191.814 562.531 195.332 564.236 198.641C566.26 202.568 572.713 205.077 576.057 207.763C581.008 211.74 585.645 216.085 590.204 220.5C598.384 228.423 606.854 236.103 614.859 244.195C622.466 251.883 629.847 259.716 639.441 264.958C660.505 276.467 679.05 292.548 697.456 307.839C716.222 323.428 734.757 339.815 751.041 358.026C759.755 367.771 766.997 378.468 773.209 389.95C776.403 395.857 779.827 401.634 783.027 407.539C784.443 410.151 786.042 412.688 787.33 415.368C788.287 417.359 788.91 420.583 790.678 422.058C794.178 414.293 788.718 404.022 785.553 397.027C783.39 392.246 781.267 387.446 779.132 382.651C777.633 379.288 774.519 375.228 774.348 371.475C773.932 362.35 785.682 368.915 788.904 371.84C796.88 379.08 801.48 389.964 807.125 398.946C808.453 391.795 794.216 380.752 800.11 374.519C804.785 369.576 813.403 381.156 816.019 384.292C817.813 375.45 813.215 366.8 808.409 359.723C803.054 351.835 796.864 344.334 790.521 337.23C775.694 320.627 758.749 305.849 741.985 291.252C725.309 276.73 708.14 262.799 691.043 248.778C674.44 235.163 657.588 221.549 639.031 210.649C628.626 204.537 617.712 199.424 607.09 193.719C595.966 187.745 585.42 180.748 574.175 174.993ZM429.144 154.852C428.659 154.973 425.852 155.31 425.642 155.557C424.727 156.635 425.947 160.121 427.026 160.747C423.303 163.53 419.121 166.063 414.389 166.496C417.366 169.417 423.022 174.527 422.142 179.238C420.931 185.719 413.144 181.174 409.99 179.213C404.929 176.064 399.757 172.724 396.051 167.976C393.698 164.963 392.897 161.768 391.136 158.523C390.18 156.76 390.736 156.441 388.618 156.319C386.198 156.182 382.058 158.477 379.815 159.389C376.351 160.799 372.973 162.426 369.715 164.264C363.705 167.657 358.079 171.774 353.15 176.611C342.944 186.623 336.032 199.777 335.156 214.18C342.399 213.321 349.485 210.198 355.588 206.302C359.935 203.528 364.369 200.268 365.136 208.096C365.434 211.145 364.581 218.245 362.751 220.604C361.042 222.807 360.304 221.021 358.53 222.342C356.479 223.872 357.562 226.074 357.562 228.222C356.573 227.392 355.585 226.563 354.598 225.733C352.81 228.069 354.833 226.818 355.508 228.231C355.902 229.055 353.208 231.427 352.67 231.847C351.557 232.717 350.942 231.997 349.669 233.247C348.851 234.051 347.969 235.855 347.082 236.859C342.497 242.047 348.568 250.177 350.969 255.678C352.746 259.752 354.685 263.745 356.534 267.784C357.888 270.74 358.619 274.249 360.417 276.973C363.985 282.38 372.161 279.426 377.498 278.764C384.737 277.865 391.846 276.945 399.093 276.264C403.341 275.865 408.141 273.393 402.686 270.194C397.272 267.02 378.569 266.419 378.448 258.254C378.32 249.574 390.38 248.131 396.428 248.877C405.275 249.967 410.992 252.2 417.044 258.877C415.688 246.144 406.654 235.613 404.638 222.838C404.09 219.368 402.407 197.98 410.746 207.22C415.212 212.169 418.749 219.659 422.05 225.382C427.046 234.046 431.4 243.049 435.987 251.93C440.363 260.406 446.774 268.55 449.839 277.567C451.564 282.639 453.971 293.299 459.445 295.887C462.952 297.546 468.873 295.375 472.495 294.846C474.733 294.519 476.916 294.199 478.836 292.907C479.83 292.238 480.812 290.504 482.067 290.31C485.683 289.751 486.616 295.275 486.37 297.818C485.99 301.74 484.189 302.757 480.531 303.213C486.697 306.234 477.197 315.684 475.53 319.452C475.443 319.259 474.361 316.611 473.557 316.614C471.959 316.619 478.453 329.404 478.943 330.293C482.349 336.464 486.626 342.012 490.763 347.7C493.141 350.969 496.563 358.702 501.4 357.971C504.079 357.567 509.645 352.051 511.75 355.833C513.649 359.244 507.783 362.903 506.9 365.615C505.419 370.164 510.991 374.947 514.274 377.332C522.976 383.653 534.259 385.145 544.557 387.053C542.589 384.4 538.303 382.955 538.218 379.156C538.16 376.573 539.986 375.163 538.752 372.352C537.736 370.037 535.189 368.692 534.431 366.211C533.595 363.475 534.913 360.367 536.417 358.107C542.79 348.526 557.026 352.513 565.374 356.866C564.758 357.137 564.246 357.529 563.84 358.042L563.742 358.172L563.764 358.157C564.835 357.501 569.479 359.557 570.058 359.974C571.887 361.292 574.354 364.364 575.617 366.267C579.683 372.394 580.265 379.862 578.153 386.807C603.61 386.807 627.592 380.022 650.374 369.207C655.577 366.738 660.688 365.157 665.617 362.049C670.681 358.858 675.492 355.315 680.465 351.993C685.136 348.872 684.714 346.998 681.585 342.561C677.775 337.161 674.419 331.404 670.19 326.311C669.541 327.722 669.287 330.545 667.899 331.412C666.365 332.37 664.957 330.467 663.923 331.187C664.015 331.123 660.747 336.2 660.221 334.936C661.583 338.207 656.131 336.117 655.165 335.511C655.39 338.577 652.842 341.216 651.411 337.118C647.524 340.675 638.307 337.419 643.278 331.934C645.732 329.226 648.403 327.787 649.946 324.252C651.673 320.296 652.276 315.818 652.493 311.541C653.005 301.458 647.549 296.75 640.709 290.212C636.89 286.561 632.902 283.096 628.973 279.566C625.519 276.464 622.531 272.622 618.907 269.746C616.304 267.681 614.227 267.087 611.701 268.88C610.66 269.619 610.321 270.558 608.984 271.27C607.27 272.183 604.728 272.748 602.816 272.986C593.204 274.183 582.079 270.888 573.271 267.338C570.859 266.366 569.704 264.784 567.616 263.581C566.296 262.82 565.171 263.281 563.77 262.372C560.108 259.997 560.292 256.185 562.954 253.217C569.191 246.262 578.15 252.518 584.524 246.902C592.466 239.904 579.225 230.228 573.876 225.945C569.595 222.516 565.917 221.774 560.685 220.874C559.589 220.685 552.321 218.587 554.864 221.603C549.217 221.457 546.44 221.48 541.894 225.005C540.701 225.929 539.115 226.803 538.787 228.38C538.614 229.212 540.328 229.379 540.332 229.371C540.101 229.93 538.376 230.945 538.127 231.123C541.035 231.468 540.28 237.177 539.53 237.209L539.486 237.203L539.571 237.277C540.841 238.479 537.976 240.331 537.004 240.642C534.245 241.525 531.627 239.606 529.782 237.689C525.652 233.398 522.653 226.098 522.918 220.15C523.289 211.802 528.771 206.962 533.293 200.704C536.678 196.022 531.649 193.532 528.149 190.594C523.865 187.001 518.039 182.583 516.63 176.859C515.347 171.645 518.904 169.861 523.462 171.429C529.622 173.547 534.607 178.998 540.066 182.409C544.911 185.436 551.027 191.617 556.947 191.97C555.861 188.105 550.482 188.515 548.401 185.644C545.653 181.851 549.922 180.16 553.152 180.595C555.659 180.932 562.812 186.24 562.626 180.12C562.526 176.841 557.057 175.743 554.676 174.795C542.577 169.979 530.184 166.694 517.353 164.463C513.194 163.741 512.13 164.247 510.12 168.002C509.438 169.277 506.986 175.143 505.642 171.254C503.884 174.441 503.372 177.837 499.55 179.119C494.686 180.749 488.433 178.336 483.952 176.465C480.106 174.859 476.451 172.607 473.983 169.173C472.755 167.466 471.86 165.571 471.28 163.551C470.788 161.836 471.021 159.025 470.131 157.467C468.644 154.862 465.099 155.424 462.362 155.164C456.252 154.583 450.219 154.058 444.077 153.986C438.974 153.927 434.102 153.617 429.144 154.852ZM561.983 383.742C560.029 384.442 563.5 386.781 564.647 386.505C564.177 385.747 563.397 383.236 561.983 383.742ZM563.742 358.172L563.689 358.213C563.621 358.274 563.576 358.352 563.556 358.449C563.6 358.377 563.646 358.308 563.693 358.24L563.742 358.172ZM602.828 296.74C604.598 298.226 603.884 301.667 605.095 303.781C608.336 309.441 614.177 315.024 619.681 318.443C625.609 322.124 628.414 326.901 629.866 333.569C630.167 334.947 631.073 336.86 630.631 338.287C630.217 339.62 628.72 340.063 628.26 341.251C628.049 341.794 628.931 345.997 628.824 346.01C628.313 346.072 626.821 343.957 626.83 343.968C626.239 345.434 626.444 347.1 624.851 347.885L624.657 347.971L624.682 347.99C625.079 348.297 626.891 349.801 626.459 350.132C625.856 350.592 624.382 350.277 623.63 350.545C622.443 350.969 621.587 352.026 620.445 352.518C617.382 353.837 613.85 353.43 610.617 352.965C603.807 351.987 596.144 349.551 591.221 344.506C585.258 338.395 586.673 332.063 586.135 325.208C585.531 317.518 591.078 305.861 595.534 299.899C597.054 297.863 600.1 294.453 602.828 296.74ZM112.975 236.908C112.59 237.818 112.974 239.238 112.748 240.237C112.292 242.261 111.118 244.033 109.988 245.732C107.873 248.912 105.745 251.826 104.302 255.414C100.759 264.221 97.473 273.713 95.776 283.051C92.136 303.099 104.289 319.634 104.951 339.16C110.532 333.284 119.019 333.003 126.581 332.986C136.644 332.964 146.614 333.387 156.639 334.268C175.817 335.954 195.422 336.638 213.598 343.648C215.599 344.42 217.1 344.754 219.109 345.175C221.316 345.638 220.147 344.605 221.761 345.911C222.195 346.263 222.368 347.532 222.822 347.977C225.17 350.274 226.576 348.713 228.565 346.249C234.037 339.466 239.497 333.302 246.537 328.031C261.534 316.8 278.332 311.614 296.819 309.944C307.415 308.987 317.761 308.435 328.403 308.538C338.564 308.636 349.292 308.822 358.918 312.458C356.524 305.606 352.435 299.466 349.138 293.038C347.537 289.917 346.052 286.636 344.016 283.764C342.227 281.239 339.526 279.176 338.287 276.293C338.066 276.872 337.845 277.451 337.623 278.029C318.076 272.43 297.919 269.414 277.878 266.212C257.747 262.995 237.866 258.537 217.778 255.108C207.692 253.386 197.569 252.351 187.41 251.197C177.631 250.087 168.203 247.916 158.561 246.071C148.796 244.202 139.292 241.938 129.69 239.364C125.664 238.285 121.853 236.796 117.935 235.497C114.81 234.462 114.1 234.24 112.975 236.908ZM545.232 272.452C545.816 274.849 543.95 277.941 543.352 280.217C542.674 282.798 541.203 283.832 540.436 286.179C539.77 288.218 540.971 299.028 535.758 295.8C535.918 296.576 536.776 297.64 536.864 298.332C536.976 299.193 536.138 300.511 536.381 301.254C536.6 301.923 538.89 303.882 539.445 304.999C541.634 309.387 543.181 314.438 544.26 319.218C545.384 324.201 546.75 331.105 542.623 334.545C541.631 335.371 540.767 335.593 539.749 336.586C539.63 337.504 539.211 338.263 538.492 338.862C538.098 338.973 537.781 338.875 537.544 338.568C536.286 339.25 536.705 336.385 535.227 339.169C534.87 339.841 535.514 342.146 535.195 341.909C534.615 341.482 532.866 339.657 532.299 339.623C531.03 341.35 531.059 339.591 529.719 339.837C529.666 340.553 529.278 340.947 528.554 341.018C527.989 340.889 527.425 340.758 526.861 340.628C523.448 340.648 518.407 339.216 515.13 338.311C508.875 336.584 504.412 332.28 503.055 325.759C500.229 312.175 511.654 295.194 519.822 285.317C522.612 281.943 542.207 260.042 545.232 272.452ZM599.781 316.214C599.693 317.355 600.046 319.06 598.764 319.186C598.822 317.899 598.281 316.25 599.781 316.214ZM510.781 314.28C511.364 317.569 511.498 315.691 510.175 317.953C509.73 316.621 509.932 315.397 510.781 314.28ZM605.491 310.039C605.999 310.671 607.944 312.377 606.269 312.814C604.804 313.195 605.429 310.818 605.491 310.039ZM535.022 287.239C534.356 290.778 536.363 289.931 539.124 289.288C537.757 288.605 536.389 287.922 535.022 287.239ZM23.271 144.469C10.045 155.818 9.64605 175.663 10.0631 191.637C10.6301 213.342 11.947 235.107 14.045 256.716C14.993 266.48 17.778 271.452 27.416 274.724C37.857 278.268 49.103 277.582 59.933 276.953C57.862 260.852 53.8091 239.669 69.9601 228.953C71.4381 227.973 72.7901 227.249 74.5891 227.156C75.7771 227.095 77.481 228.172 78.609 227.621C80.89 226.506 79.585 223.348 78.838 221.561C76.567 216.129 72.233 211.782 68.717 207.173C64.301 201.387 60.507 201.543 53.913 202.257C51.284 202.543 40.942 203.721 42.978 198.108C44.457 194.027 52.582 195.049 55.874 194.104C58.369 193.387 58.878 193.071 58.771 190.521C58.602 186.536 56.317 185.454 52.772 185.563C48.212 185.702 40.317 188.126 36.5201 184.54C31.0981 179.418 39.139 175.832 43.216 175.136C47.484 174.408 53.192 175.071 54.177 169.788C55.115 164.749 52.4571 158.651 50.3801 154.214C48.3701 149.922 45.623 144.452 41.429 141.875C35.511 138.24 28.21 140.23 23.271 144.469ZM74.605 239.287C69.233 240.492 66.1421 247.487 65.5181 252.378C64.9151 257.109 65.326 263.861 68.795 267.497C73.348 272.268 81.285 271.947 86.185 276.425C88.356 265.649 92.3701 255.279 97.6431 245.65C93.4791 244.503 89.421 243.02 85.315 241.689C82.311 240.716 77.831 238.563 74.605 239.287ZM419.437 262.502C420.642 263.532 421.023 263.845 421.334 265.462C418.474 265.643 419.335 264.724 419.437 262.502ZM447.803 185.852C452.273 185.968 454.363 187.415 457.95 189.557C460.506 191.084 463.607 189.441 463.607 193.32C470.904 187.585 484.512 202.393 489.627 206.272C495.023 210.363 500.336 215.179 500.933 222.48C501.11 224.642 500.662 226.858 500.987 229.011C501.232 230.633 502.259 232.254 502.084 233.936C501.878 235.886 500.229 237.026 499.849 238.859C499.699 239.585 500.213 241.043 499.894 241.63C496.623 247.627 492.431 252.547 485.254 253.14C479.003 253.657 472.097 251.426 467.541 247.064C463.499 243.195 461.089 237.397 460.042 231.975C459.86 231.037 460.205 228.888 459.896 228.095C459.447 226.939 458.771 226.919 458.214 225.984C456.737 223.504 454.617 218.83 456.534 216.105C451.808 217.172 448.216 207.046 446.452 204.093C445.129 201.882 441.941 200.151 441.056 198C439.842 195.05 444.204 193.784 442.693 191.729C441.884 190.629 437.542 191.378 437.968 188.622C438.364 186.073 446.096 185.807 447.803 185.852ZM539.355 237.106C539.398 237.16 539.442 237.192 539.486 237.203L539.471 237.19L539.355 237.106ZM526.878 215.026C527.288 214.674 529.484 212.451 529.742 214.118C529.953 215.484 527.535 215.026 526.878 215.026ZM321.951 41.8582C317.185 42.1492 312.937 47.2942 309.387 49.9952C304.086 54.0272 297.822 56.9872 291.575 59.2252C284.303 61.8282 276.828 64.1452 269.362 66.1202C261.789 68.1242 253.901 68.5342 246.352 70.6162C250.087 77.4522 253.823 84.2892 257.559 91.1262C259.197 88.8712 258.637 86.3252 261.333 84.7042C263.204 83.5792 265.912 83.4252 268.027 83.0092C273.915 81.8502 280.376 80.8242 286.353 82.0232C290.209 82.7972 294.5 85.7662 290.848 89.9122C288.543 92.5282 283.582 91.8562 283.177 96.0112C282.789 99.9922 286.854 103.412 285.913 107.598C284.59 113.482 278.711 111.72 276.097 107.916C273.766 104.524 274.65 98.4922 271.051 96.0462C268.904 94.5872 263.165 94.0612 260.853 95.3102C265.102 103.152 273.36 112.821 268.516 122.196C267.027 125.076 263.775 126.174 265.955 129.004C268.469 132.268 275.723 134.957 279.585 133.958C283.201 133.023 287.344 128.949 291.411 130.965C295.251 132.868 292.53 136.099 292.869 139.088C293.891 148.091 312.355 142.956 317.368 141.761C322.397 140.563 327.644 137.664 332.835 137.545C337.731 137.432 342.277 139.792 346.156 142.556C349.061 144.626 353.895 150.682 357.58 150.884C361.278 151.087 366.519 145.613 369.782 143.956C375.636 140.982 382.035 140.122 388.239 138.14C389.224 137.826 393.527 136.941 393.606 135.504C393.678 134.123 388.592 131.102 387.728 130.442C379.835 124.415 374.054 116.106 365.843 110.462C362.182 107.945 358.227 106.171 353.95 105.038C351.576 104.41 345.112 103.563 344.942 100.178C356.331 98.2702 356.615 84.0612 351.812 76.0042C348.757 70.8802 344.018 68.4432 338.032 69.5452C329.358 71.1432 327.772 77.4922 325.786 85.0262C318.698 81.1702 310.971 71.7272 310.55 63.4062C310.083 54.1552 320.016 50.1772 321.951 41.8582ZM533.546 104.03C545.496 106.247 557.185 109.202 568.693 113.129C575.781 115.548 586.094 117.628 592.224 122.166C594.013 123.492 596.267 126.408 594.634 128.738C593.227 130.747 589.782 130.206 587.746 129.893C578.494 128.47 569.43 124.598 560.277 122.51C535.95 116.962 510.993 114.355 486.139 112.579C479.285 112.09 472.426 111.667 465.572 111.185C459.864 110.785 453.591 110.966 448.002 109.674C443.594 108.655 442.496 105.416 445.797 101.769C449.015 98.2152 454.413 98.7692 458.724 98.1202C483.808 96.4822 508.91 99.4592 533.546 104.03ZM491.973 75.0012C500.105 77.8032 490.601 79.1392 487.044 78.8452C485.838 78.7462 469.932 77.1682 469.932 77.6572C466.757 77.6572 458.358 80.0852 456.078 76.8752C453.629 73.4282 464.113 72.2182 466.232 72.0652C474.379 71.4782 484.142 72.3042 491.973 75.0012Z" fill="black"/>
</g>
<defs>
<clipPath id="clip0_398_134">
<rect width="837" height="678" fill="white"/>
</clipPath>
</defs>
</svg>
